<svg t="1716798762554" class="icon" viewBox="0 0 1024 1024" version="1.1" xmlns="http://www.w3.org/2000/svg" p-id="7065" width="128" height="128"><path d="M707.377813 343.746664h-72.671845V124.337516c0-73.147713-152.515701-124.337516-319.579366-124.337516S0 51.427737 0 124.57545v649.865764c0 58.531767 148.062936 103.22937 322.400584 103.22937h72.603864v43.881829c0 58.531767 138.035717 102.413596 312.339375 102.413596 167.029675 0 312.305384-43.88183 312.305384-109.75556V453.468233c0.033991-65.83974-145.241718-117.029543-312.271394-109.721569zM68.151099 124.337516c14.581956-14.615946 101.699794-58.531767 246.975503-58.531767 145.241718 0 232.427538 36.607847 246.975502 58.531767v21.95791c-7.273983 29.231893-101.699794 73.113722-246.975502 73.113722S82.699064 175.527319 68.151099 146.295426v-21.95791z m319.647348 687.527318H315.160592c-138.035717 0-225.187546-29.231893-246.975503-51.223793v-138.953462c58.12388 36.573856 152.549691 51.223793 246.975503 51.223793 21.821948 0 50.815907-7.341964 72.637855-7.341964v146.295426z m0-219.443138c-21.821948 7.307973-43.541924 7.307973-72.637855 7.307973-145.275709 0-232.427538-43.813849-246.975503-73.113723v-102.379605c58.12388 36.573856 152.549691 51.189803 246.975503 51.189803 21.821948 0 50.815907-7.307973 72.637855-7.307974v124.303526z m-72.637855-182.835292c-145.275709 0-226.003319-34.840337-240.551284-64.106221l0.849764-9.041492V234.025095c58.089889 36.607847 152.515701 51.223793 246.975503 51.223793s188.851623-14.615946 246.941512-51.223793v102.413596l-14.513975 14.615946c-58.089889 14.649937-101.665804 29.265883-130.761734 51.189803-29.06194 7.341964-65.397862 7.341964-108.939786 7.341964z m635.861648 496.636261c-18.490872 22.671712-105.60871 51.903605-243.678417 51.903605-138.035717 0-232.393547-29.231893-246.975503-51.189803l-4.350794-98.946558-2.515302-127.362677c-0.067981-0.169953-0.305915-0.339906-0.373896-0.509858v-6.594171l-0.305915-5.744407h0.305915v-104.588993c58.089889 36.505875 152.48171 51.189803 246.975503 51.189803 94.391821 0 188.885614-14.683928 246.975502-51.189803v113.256589l2.889199 84.058687c0.339906-0.203943-0.339906 0.237934 0 0l1.053708 30.557525 0.713802 21.176127h-0.713802v93.983934z m3.331076-423.488548c-7.341964 29.231893-101.699794 73.147713-247.009493 73.147713-145.241718 0-232.427538-43.91582-247.009494-73.147713v-21.95791c14.547965-14.615946 101.699794-58.531767 247.009494-58.531767s232.427538 36.607847 247.009493 58.531767v21.95791z" p-id="7066"></path><path d="M677.126203 913.05477v-51.903605h-56.526322c-12.202616 0-18.354909-6.084313-18.35491-18.42289 0.985727-9.993228 7.13802-16.145522 18.35491-18.3889h56.526322v-28.4841h-56.526322c-12.202616 0-18.354909-6.050322-18.35491-18.3889 0.985727-9.993228 7.13802-16.145522 18.35491-18.422891h32.05311l-48.878444-75.289119c-5.098586-4.418774-7.172011-10.605059-6.084313-18.3889 0.951736-19.00073 10.67304-29.537808 29.02795-31.815176a33.650667 33.650667 0 0 1 22.943636 13.392286l56.492333 88.681404 56.560313-88.681404c5.064595-7.783841 12.712474-12.236606 22.943637-13.392286 17.301202 2.243378 26.954524 12.814446 28.993958 31.815176 0 7.783841-2.039434 13.970125-6.084312 18.3889l-48.878444 75.289119h32.05311c10.197172 2.277368 16.281484 8.429662 18.3889 18.422891-1.053708 12.338578-7.172011 18.3889-18.3889 18.3889H735.216092v28.4841h56.526323c10.197172 2.243378 16.281484 8.395672 18.3889 18.3889-1.053708 12.338578-7.172011 18.422891-18.3889 18.42289H735.216092v51.903605c-0.985727 18.96674-10.67304 28.416119-29.027949 28.416119-19.408617 0-29.06194-9.449379-29.06194-28.416119z" p-id="7067"></path></svg>