<svg t="1689670637931" class="icon" viewBox="0 0 1024 1024" version="1.1" xmlns="http://www.w3.org/2000/svg" p-id="1144" width="200" height="200"><path d="M299.707317 674.341463h199.804878c151.726829 0 274.731707 123.004878 274.731707 274.731708H24.97561c0-151.726829 123.004878-274.731707 274.731707-274.731708z" fill="#8BB7F0" p-id="1145"></path><path d="M499.512195 664.35122h-199.804878c-157.246439 0-284.721951 127.475512-284.721951 284.721951 0 5.51961 4.49561 9.990244 9.990244 9.990244h749.268292a9.990244 9.990244 0 0 0 9.990244-10.115122l-0.099902-7.192976c-3.971122-154.22439-130.147902-277.404098-284.622049-277.404097z m0 19.980487l7.168 0.099903c137.965268 3.671415 250.005854 113.014634 257.198829 250.555317l0.149854 4.096H35.165659l0.174829-4.295805c7.417756-139.563707 122.954927-250.455415 264.366829-250.455415h199.804878z" fill="#4E7AB6" p-id="1146"></path><path d="M274.731707 449.560976m124.878049 0l0 0q124.878049 0 124.878049 124.878048l0 74.92683q0 124.878049-124.878049 124.878048l0 0q-124.878049 0-124.878049-124.878048l0-74.92683q0-124.878049 124.878049-124.878048Z" fill="#FBD998" p-id="1147"></path><path d="M399.609756 439.570732a134.868293 134.868293 0 0 0-134.868293 134.868292v74.92683a134.868293 134.868293 0 1 0 269.736586 0v-74.92683a134.868293 134.868293 0 0 0-134.868293-134.868292z m0 19.980488a114.887805 114.887805 0 0 1 114.887805 114.887804v74.92683a114.887805 114.887805 0 1 1-229.77561 0v-74.92683a114.887805 114.887805 0 0 1 114.887805-114.887804z" fill="#967A44" p-id="1148"></path><path d="M799.219512 799.219512m-199.804878 0a199.804878 199.804878 0 1 0 399.609756 0 199.804878 199.804878 0 1 0-399.609756 0Z" fill="#BBE0BD" p-id="1149"></path><path d="M799.219512 589.42439a209.795122 209.795122 0 1 0 0 419.590244 209.795122 209.795122 0 0 0 0-419.590244z m0 19.980488a189.814634 189.814634 0 1 1 0 379.629268 189.814634 189.814634 0 0 1 0-379.629268z" fill="#5E9C76" p-id="1150"></path><path d="M824.195122 674.341463v99.902439h99.902439v49.95122h-99.902439v99.902439h-49.95122v-99.902439h-99.902439v-49.95122h99.902439v-99.902439h49.95122z" fill="#FFFFFF" p-id="1151"></path><path d="M577.514635 433.962486a30.520195 50.875317 33 1 0 51.192779 33.244979 30.520195 50.875317 33 1 0-51.192779-33.244979Z" fill="#FBD998" p-id="1152"></path><path d="M221.700229 433.963863a50.875317 30.520195 57 1 1-51.192779 33.244979 50.875317 30.520195 57 1 1 51.192779-33.244979Z" fill="#FBD998" p-id="1153"></path><path d="M635.254634 401.083317c-18.83161-12.238049-47.128976 1.598439-64.561951 28.44722s-18.556878 58.318049 0.274732 70.556097c18.83161 12.238049 47.153951-1.598439 64.586926-28.447219s18.531902-58.318049-0.299707-70.556098z m-8.866341 13.661659c9.44078 6.119024 8.666537 27.722927-4.49561 48.028097-13.187122 20.280195-32.618146 29.770927-42.058927 23.651903-9.44078-6.119024-8.666537-27.747902 4.49561-48.028098 13.187122-20.280195 32.618146-29.795902 42.058927-23.651902zM163.964878 401.083317c18.83161-12.238049 47.128976 1.598439 64.561951 28.44722s18.556878 58.318049-0.274731 70.556097c-18.83161 12.238049-47.153951-1.598439-64.586927-28.447219s-18.531902-58.318049 0.299707-70.556098z m8.866342 13.661659c-9.44078 6.119024-8.666537 27.722927 4.495609 48.028097 13.187122 20.280195 32.618146 29.770927 42.058927 23.651903 9.44078-6.119024 8.666537-27.747902-4.49561-48.028098-13.187122-20.280195-32.618146-29.795902-42.058926-23.651902z" fill="#967A44" p-id="1154"></path><path d="M343.289756 264.891317c47.878244 0 133.020098-32.568195 158.295415-77.099707 21.853659 14.810537 83.843122 36.039805 83.843122 123.379512l-0.624391 201.528195c0 75.776-68.558049 129.024-123.304585 156.946732-16.633756 8.491707-25.974634 29.221463-66.260293 29.221463s-59.392-28.27239-69.282341-34.965853c-67.683902-32.168585-112.440195-77.923902-121.656195-151.202342l0.62439-180.923317c0-35.390439 64.811707-66.859707 138.364878-66.859707z" fill="#FBD998" p-id="1155"></path><path d="M494.492098 183.770537c-20.679805 36.46439-94.257951 70.556098-145.782635 72.878829l-5.419707 0.124878c-77.374439 0-146.506927 33.467317-146.506927 75.001756l-0.62439 180.873366c9.141073 73.10361 51.2 122.88 126.301659 158.595122l9.990243 9.315902c2.797268 2.547512 5.569561 4.995122 7.417757 6.493659 15.98439 12.737561 33.542244 19.980488 55.370926 19.980488 21.553951 0 35.790049-4.945171 49.95122-15.235122l3.871219-2.922147c1.498537-1.173854 7.118049-5.794341 8.491708-6.868292 2.997073-2.347707 5.319805-3.921171 7.642536-5.12 75.850927-38.662244 127.750244-95.531707 127.750244-164.189659l0.62439-201.503219c0-48.677463-17.682732-81.720195-48.852292-105.796683l-4.420683-3.196878a584.029659 584.029659 0 0 0-34.166634-21.154342 8.142049 8.142049 0 0 0-11.638634 2.722342z m8.466731 16.658731l1.173854-1.723317 13.561756 8.241951c6.693463 4.170927 13.361951 8.491707 17.083317 11.338927 27.323317 21.10439 42.508488 49.501659 42.508488 92.884293l-0.62439 201.503219c0 61.065366-47.90322 113.539122-118.858927 149.728781-2.247805 1.148878-4.420683 2.497561-6.743415 4.120976l-3.571512 2.67239-8.516683 6.918244c-12.812488 10.115122-24.151415 14.635707-43.707317 14.635707-17.80761 0-31.943805-5.819317-45.230829-16.433951l-6.293854-5.494634c-5.194927-4.695415-11.438829-10.46478-13.212097-11.66361-71.505171-34.091707-109.842732-79.447415-118.134635-145.482927l0.674342-179.874341c0-28.472195 57.094244-56.969366 123.928975-58.692683l6.293854-0.074927c53.198049 0 129.623415-32.842927 159.669073-72.604098z" fill="#967A44" p-id="1156"></path><path d="M394.489756 26.199415c100.476878 11.014244 100.526829 63.138341 119.18361 64.212292 226.878439 13.137171 105.646829 350.382829 71.754927 350.38283h-0.424586l0.424586-129.623415c0-84.842146-58.492878-107.29522-81.895025-122.105756l-1.948097-1.273756c-25.275317 44.531512-110.392195 77.124683-158.295415 77.124683-73.553171 0-138.364878 31.469268-138.364878 66.859707l-0.39961 108.993561-0.249756 0.024976C135.542634 300.981073 126.826146 192.561951 178.200976 115.537171c33.767024-50.625561 128.874146-98.903415 216.313756-89.337756z" fill="#A7714E" p-id="1157"></path><path d="M171.40761 111.041561c-53.297951 79.896976-44.356683 191.213268 25.575024 333.349463a8.092098 8.092098 0 0 0 6.168976 4.445659l2.072975 0.049951a8.142049 8.142049 0 0 0 7.442732-8.092097l0.39961-108.993561 0.149853-2.697366c2.972098-27.473171 59.042341-54.321951 123.779122-55.970342l12.088196-0.199805c52.798439-2.247805 124.928-34.166634 153.849756-72.504195l1.098926-1.598439 11.613659 6.743415c7.417756 4.370732 13.386927 8.291902 19.131317 12.737561 27.323317 21.079415 42.508488 49.476683 42.508488 92.859317l-0.424585 129.573463c0 3.746341 2.497561 6.918244 5.96917 7.867317l2.247805 0.324683c26.549073 0 64.487024-95.956293 70.381268-177.826341 7.867317-109.34322-36.014829-182.721561-141.312-188.81561-0.599415-0.024976-1.373659-0.424585-2.747317-1.698341l-6.36878-7.842342c-5.769366-6.918244-14.286049-16.633756-20.180293-21.653853C464.646244 33.966829 436.44878 22.627902 395.363902 18.132293 310.67161 8.791415 209.845073 53.347902 171.40761 111.041561zM393.61561 34.266537c37.962927 4.170927 63.08839 14.286049 80.671219 29.221463 8.341854 7.068098 25.050537 28.072585 25.974634 28.946732a20.205268 20.205268 0 0 0 12.962342 6.094048c94.657561 5.469659 133.294829 70.081561 126.001951 171.382635l-0.499512 6.144c-5.34478 57.294049-27.822829 122.505366-43.207805 146.781658l-2.347707 3.371707 0.399609-115.037658c0-48.677463-17.682732-81.720195-48.852292-105.796683a177.077073 177.077073 0 0 0-15.085269-10.389854l-21.72878-12.812487-1.873171-1.248781a8.142049 8.142049 0 0 0-11.538731 2.822244c-20.679805 36.46439-94.257951 70.556098-145.782635 72.878829l-5.419707 0.124878c-74.677073 0-142.011317 31.244488-146.282146 71.030634l-0.199805 3.546537-0.299707 73.453268-2.247805-5.144975C142.860488 280.376195 140.088195 187.317073 184.94439 120.057756 219.93522 67.584 314.817561 25.624976 393.61561 34.291512z" fill="#7A4F35" p-id="1158"></path></svg>