<svg t="1719571589475" class="icon" viewBox="0 0 1024 1024" version="1.1" xmlns="http://www.w3.org/2000/svg" p-id="6127" width="200" height="200"><path d="M683.2 287.52c-13.44 0-24.32 11.04-24.32 24.48v508.48h48.8V312c0-13.44-11.04-24.48-24.48-24.48zM646.56 287.52c-10.4 0-18.72 11.04-18.72 24.48v508.48h-121.44V312c0-13.44 8.32-24.48 18.88-24.48h121.28z" fill="#B3C8FE" p-id="6128"></path><path d="M695.36 287.52c-13.44 0-24.32 11.04-24.32 24.48v508.48h48.8V312c0-13.44-11.04-24.48-24.48-24.48z" fill="#B3C8FE" p-id="6129"></path><path d="M804.48 287.52v508.64c0 13.44-10.88 24.32-24.32 24.32h-60.32V312c0-13.44-11.04-24.48-24.48-24.48h109.12zM371.84 292l48.48 5.92-50.08 500.64c-0.64 6.56-4 12.48-8.96 16.64-4.48 3.52-9.76 5.28-15.36 5.28-0.96 0-1.92 0-2.88-0.16l-88.64-10.4 5.6-48.32 51.68-452.48c0.8-6.4 4-12.32 9.12-16.32 5.12-4 11.68-5.76 18.08-4.96l32.96 4.16zM486.4 330.08l-46.4 464.48V300.32l25.28 3.2c13.12 1.6 22.56 13.44 21.12 26.56z" fill="#B3C8FE" p-id="6130"></path><path d="M622.24 203.52h-157.92c-13.44 0-24.32 10.88-24.32 24.32v568.32c0 13.44 10.88 24.32 24.32 24.32h157.92c13.44 0 24.32-10.88 24.32-24.32V227.84c0-13.44-10.88-24.32-24.32-24.32z m-133.44 48.64h109.12v519.68h-109.12V252.16z" fill="#5186F5" p-id="6131"></path><path d="M780.16 203.52h-157.92c-13.44 0-24.32 10.88-24.32 24.32v568.32c0 13.44 10.88 24.32 24.32 24.32h157.92c13.44 0 24.32-10.88 24.32-24.32V227.84c0-13.44-10.88-24.32-24.32-24.32z m-24.32 568.32h-109.28V252.16h109.28v519.68zM404.32 219.36l-126.4-15.68c-6.4-0.8-12.96 0.96-18.08 4.96-5.12 4-8.48 9.92-9.12 16.32L187.52 777.6c-1.44 13.44 8 25.44 21.44 27.04l45.44 5.28 88.64 10.4c0.96 0.16 1.92 0.16 2.88 0.16 5.6 0 10.88-1.76 15.36-5.28 4.96-4.16 8.32-10.08 8.96-16.64l50.08-500.64 5.12-51.84c1.28-13.28-8.16-24.96-21.12-26.72z m-32.48 72.64l-47.68 477.12-64.16-7.52-21.28-2.56 57.6-504 78.24 9.76-2.72 27.2z" fill="#5186F5" p-id="6132"></path><path d="M676.96 369.92h48.64v47.36h-48.64zM519.04 369.92h48.64v47.36h-48.64z" fill="#5186F5" p-id="6133"></path></svg>