<svg t="1710211139837" class="icon" viewBox="0 0 1024 1024" version="1.1" xmlns="http://www.w3.org/2000/svg" p-id="5523" width="128" height="128"><path d="M142.6 909.1c-21.3 0-42.5-8.9-58.3-24.4-15.8-15.6-24.9-36.5-24.9-57.4V326.7c0-21.2 9-40.9 25.3-55.4 15.7-14 36.3-21.7 58-21.7h142.2v-57.7c0-45.1 39.5-81.9 88.1-81.9h274.7c23.6 0 45.8 8.6 62.4 24.3 16.3 15.3 25.7 36.3 25.7 57.6v57.7H877.7c21.2 0 42.4 8.9 58.2 24.4 15.9 15.6 25 36.5 25 57.5v495.7c0 21.7-8.2 42.1-23 57.3-15.4 15.8-36.8 24.6-60.3 24.6h-735zM127.8 827c0 8.9 5.5 14.2 14.8 14.2h735.1c9.2 0 14.7-5.3 14.7-14.1V497.5c-5 2.4-10.3 4.7-16 6.9l-0.2 0.1-287.7 97v21.9c0 29.3-24.2 53.1-53.9 53.1h-49.1c-14.4 0-28-5.5-38.1-15.5-10.2-10-15.8-23.4-15.8-37.6v-17.5L144.2 499.5c-5.8-1.9-11.3-3.9-16.4-6V827z m402-208.7v-81.5h-39.3v81.5h39.3z m-98-81.5V532c0-14.3 5.6-27.7 15.8-37.7 10.1-9.9 23.7-15.4 38.1-15.4h49.1c14.4 0 27.9 5.5 38 15.5 10.1 10 15.6 23.3 15.7 37.5l266.4-94c19.1-7.3 29.1-13.2 33.1-19.8 3.9-6.4 3.9-16.1 3.8-30.8v-55.7c0-0.6-0.2-14.2-14.7-14.2H140.3c-7.8 0.9-12.4 6-12.4 14.2v52.9c0 15.8 0 26.3 4.3 34.4 4.5 8.4 14.5 15.5 33.5 23.9l266.1 94z m235.1-287.2v-57.7c0-3.5 0-14.2-19.7-14.2H372.9c-9.5 0-19.6 5.7-19.6 14.2v57.7h313.6z" p-id="5524"></path></svg>