<svg t="1699691460757" class="icon" viewBox="0 0 1024 1024" version="1.1" xmlns="http://www.w3.org/2000/svg" p-id="3707" width="200" height="200"><path d="M0 0m153.6 0l716.8 0q153.6 0 153.6 153.6l0 716.8q0 153.6-153.6 153.6l-716.8 0q-153.6 0-153.6-153.6l0-716.8q0-153.6 153.6-153.6Z" fill="#4CA4FE" p-id="3708"></path><path d="M266.24 204.8h491.52a20.48 20.48 0 0 1 20.48 20.48v532.48c0 33.93024-27.50976 61.44-61.44 61.44H307.2c-33.93024 0-61.44-27.50976-61.44-61.44V225.28a20.48 20.48 0 0 1 20.48-20.48z" fill="#FFFFFF" p-id="3709"></path><path d="M655.63136 655.34464H369.0752a20.51072 20.51072 0 1 0 0 41.02144h286.68928a20.51072 20.51072 0 1 0 0-41.02144h-0.13312z m0-102.32832H369.0752a20.46464 20.46464 0 1 0 0 40.9344h286.68928a20.48512 20.48512 0 0 0 0-40.97536h-0.13312v0.04096z m0-245.7088a40.97536 40.97536 0 0 0-40.97536 40.97024 36.7616 36.7616 0 0 0 2.02752 9.96864l-53.4528 53.41184a38.6816 38.6816 0 0 0-9.96864-2.0736c-2.83648 0.256-5.632 0.83456-8.33536 1.72032l-34.31936-34.31424a37.35552 37.35552 0 0 0 1.67936-8.4224 40.97536 40.97536 0 0 0-81.90464 0 37.0688 37.0688 0 0 0 2.02752 10.0096l-53.4528 53.4528a38.72768 38.72768 0 0 0-9.8816-1.98144 40.97536 40.97536 0 1 0 40.84224 40.9344 38.63552 38.63552 0 0 0-2.03264-10.01472l53.45792-53.37088a38.77376 38.77376 0 0 0 10.01472 1.98656 38.15424 38.15424 0 0 0 9.39008-1.8944l33.47968 33.47456c-1.024 3.04128-1.664 6.1952-1.8944 9.3952a40.97536 40.97536 0 0 0 81.85856 0 38.6816 38.6816 0 0 0-1.98656-10.0096l53.41184-53.59104a40.7808 40.7808 0 0 0 10.01472 2.02752 40.97536 40.97536 0 1 0 0-81.90464v0.26624-0.04608z" fill="#4CA4FE" p-id="3710"></path></svg>