<svg t="1702633215248" class="icon" viewBox="0 0 1024 1024" version="1.1"
    xmlns="http://www.w3.org/2000/svg" p-id="18027" width="128" height="128">
    <path d="M512 512m-512 0a512 512 0 1 0 1024 0 512 512 0 1 0-1024 0Z" fill="#5EAAFF" opacity=".149" p-id="18028"></path>
    <path d="M674.909091 279.272727a23.272727 23.272727 0 0 1 23.272727 23.272728v372.363636a69.818182 69.818182 0 0 1-69.818182 69.818182H395.636364a69.818182 69.818182 0 0 1-69.818182-69.818182V302.545455a23.272727 23.272727 0 0 1 23.272727-23.272728h325.818182z m-121.949091 283.927273h-12.101818v13.032727h-21.410909v12.101818h21.410909v9.309091h-19.549091v12.101819h18.618182v9.30909h-23.272728v12.101819h6.516364v1.861818c0.930909 22.341818-1.861818 40.029091-5.585454 54.923636l-0.93091 0.930909 11.17091 2.792728 0.930909-0.93091c5.585455-14.894545 7.447273-33.512727 6.516363-58.647272v-0.930909h5.585455v62.370909h12.101818v-64.232728h23.272727v-11.170909h-0.930909l-0.023273-0.930909h-22.318545v-9.309091h19.549091v-12.101818h-19.549091v-9.309091h21.410909v-12.101818h-21.410909v-11.170909z m16.756364 68.887273h-12.101819v61.44h12.101819v-61.44z m73.541818-67.025455l-65.163637 3.723637 0.93091 13.032727h23.272727v24.203636h-26.996364l-0.023273 11.170909h0.954182v0.930909h26.065455v23.272728H572.509091v12.101818h29.789091V674.909091c0 10.24 8.378182 18.618182 18.618182 18.618182h26.065454v-12.101818h-26.065454c-3.723636 0-6.516364-2.792727-6.516364-6.516364v-23.272727h32.581818v-12.101819h-31.650909v-23.272727h30.72v-12.101818h-30.72v-25.134545l28.858182-1.861819-0.930909-12.101818zM477.090909 488.727273h-69.818182a11.636364 11.636364 0 0 0-2.094545 23.086545l2.094545 0.186182h69.818182a11.636364 11.636364 0 1 0 0-23.272727z m139.636364-69.818182h-209.454546a11.636364 11.636364 0 0 0-2.094545 23.086545l2.094545 0.186182h209.454546a11.636364 11.636364 0 1 0 0-23.272727z m-69.818182-69.818182h-139.636364a11.636364 11.636364 0 0 0-2.094545 23.086546l2.094545 0.186181h139.636364a11.636364 11.636364 0 1 0 0-23.272727z" fill="#5EAAFF" p-id="18029"></path>
</svg>