<svg t="1702634487501" class="icon" viewBox="0 0 1024 1024" version="1.1" xmlns="http://www.w3.org/2000/svg" p-id="2255" width="128" height="128"><path d="M512 512m-512 0a512 512 0 1 0 1024 0 512 512 0 1 0-1024 0Z" fill="#5EAAFF" opacity=".149" p-id="2256"></path><path d="M698.181818 349.090909a23.272727 23.272727 0 0 1 23.272727 23.272727v256a69.818182 69.818182 0 0 1-69.818181 69.818182H349.090909a69.818182 69.818182 0 0 1-69.818182-69.818182V372.363636a23.272727 23.272727 0 0 1 23.272728-23.272727h395.636363z m-261.026909 71.889455a11.636364 11.636364 0 0 0-14.848 17.803636L472.273455 488.727273H430.545455l-2.094546 0.186182a11.636364 11.636364 0 0 0 2.094546 23.086545H488.727273v23.272727h-58.181818l-2.094546 0.186182a11.636364 11.636364 0 0 0 2.094546 23.086546H488.727273v58.181818l0.186182 2.094545A11.636364 11.636364 0 0 0 512 616.727273V558.545455h58.181818l2.094546-0.186182A11.636364 11.636364 0 0 0 570.181818 535.272727H512v-23.272727h58.181818l2.094546-0.186182A11.636364 11.636364 0 0 0 570.181818 488.727273h-41.751273l49.989819-49.943273 1.326545-1.629091a11.636364 11.636364 0 0 0-1.326545-14.848l-1.629091-1.326545a11.636364 11.636364 0 0 0-14.848 1.326545L500.363636 483.909818l-61.579636-61.602909z" fill="#5EAAFF" p-id="2257"></path><path d="M325.818182 279.272727m23.272727 0l302.545455 0q23.272727 0 23.272727 23.272728l0 0q0 23.272727-23.272727 23.272727l-302.545455 0q-23.272727 0-23.272727-23.272727l0 0q0-23.272727 23.272727-23.272728Z" fill="#5EAAFF" p-id="2258"></path></svg>