<svg width="23" height="26.285714285714285" viewBox="0 0 70 80" fill="none"><path fill-rule="evenodd" clip-rule="evenodd" d="M27.257 31.194v-3.092a23.97 23.97 0 00-3.237-.235C10.775 27.867 0 38.643 0 51.888c0 8.127 4.06 15.318 10.255 19.667-3.998-4.292-6.45-10.041-6.45-16.355 0-13.055 10.469-23.703 23.452-24.007" fill="#00FAF0"/><path fill-rule="evenodd" clip-rule="evenodd" d="M27.824 66.17c5.91 0 10.73-4.7 10.95-10.557l.02-52.301h9.555c-.2-1.075-.308-2.18-.308-3.312H34.99l-.022 52.301c-.219 5.857-5.04 10.557-10.949 10.557-1.837 0-3.566-.46-5.088-1.26 1.994 2.763 5.232 4.572 8.892 4.572M66.198 21.063v-2.907c-3.645 0-7.04-1.084-9.887-2.94a18.16 18.16 0 009.887 5.847" fill="#00FAF0"/><path fill-rule="evenodd" clip-rule="evenodd" d="M56.31 15.216a18.072 18.072 0 01-4.466-11.904H48.35c.92 4.972 3.871 9.237 7.96 11.904M24.02 40.918c-6.048 0-10.97 4.921-10.97 10.97 0 4.212 2.39 7.872 5.882 9.71a10.894 10.894 0 01-2.077-6.398c0-6.05 4.92-10.97 10.97-10.97 1.13 0 2.212.185 3.237.506V31.414a23.95 23.95 0 00-3.237-.235c-.19 0-.378.01-.567.015v10.23a10.81 10.81 0 00-3.237-.506" fill="#FF0050"/><mask id="svg_87a3899822__a" style="mask-type:alpha" maskUnits="userSpaceOnUse" x="10" y="21" width="60" height="59"><path fill-rule="evenodd" clip-rule="evenodd" d="M10.254 21.063H70V79.22H10.254V21.063z" fill="#fff"/></mask><g mask="url(#svg_87a3899822__a)"><path fill-rule="evenodd" clip-rule="evenodd" d="M66.196 21.063v10.143a31.037 31.037 0 01-18.156-5.839v26.521c0 13.245-10.775 24.02-24.02 24.02a23.881 23.881 0 01-13.766-4.353c4.388 4.71 10.639 7.665 17.57 7.665 13.245 0 24.02-10.775 24.02-24.02V28.679A31.037 31.037 0 0070 34.517v-13.05a18.13 18.13 0 01-3.804-.404" fill="#FF0050"/></g><path fill-rule="evenodd" clip-rule="evenodd" d="M48.04 51.888v-26.52a31.038 31.038 0 0018.156 5.838V21.063a18.164 18.164 0 01-9.887-5.847c-4.089-2.667-7.04-6.932-7.96-11.904h-9.555l-.02 52.3c-.22 5.857-5.041 10.558-10.95 10.558-3.66 0-6.899-1.809-8.893-4.572-3.491-1.838-5.881-5.498-5.881-9.71 0-6.049 4.921-10.97 10.97-10.97 1.13 0 2.212.186 3.237.507V31.194C14.273 31.497 3.804 42.144 3.804 55.2c0 6.314 2.452 12.063 6.45 16.355a23.881 23.881 0 0013.766 4.353c13.245 0 24.02-10.775 24.02-24.02" fill="#000"/></svg>