<svg t="1700128165081" class="icon" viewBox="0 0 1024 1024" version="1.1" xmlns="http://www.w3.org/2000/svg" p-id="1955" width="200" height="200"><path d="M789.333333 213.333333H725.333333V149.333333c0-12.8-8.533333-21.333333-21.333333-21.333333s-21.333333 8.533333-21.333333 21.333333V213.333333H341.333333V149.333333c0-12.8-8.533333-21.333333-21.333333-21.333333s-21.333333 8.533333-21.333333 21.333333V213.333333H234.666667C174.933333 213.333333 128 260.266667 128 320v469.333333C128 849.066667 174.933333 896 234.666667 896h554.666666c59.733333 0 106.666667-46.933333 106.666667-106.666667v-469.333333C896 260.266667 849.066667 213.333333 789.333333 213.333333zM853.333333 789.333333c0 34.133333-29.866667 64-64 64h-554.666666c-34.133333 0-64-29.866667-64-64V469.333333h682.666666v320zM170.666667 426.666667V320C170.666667 285.866667 200.533333 256 234.666667 256H298.666667v64c0 12.8 8.533333 21.333333 21.333333 21.333333s21.333333-8.533333 21.333333-21.333333V256h341.333334v64c0 12.8 8.533333 21.333333 21.333333 21.333333s21.333333-8.533333 21.333333-21.333333V256h64c34.133333 0 64 29.866667 64 64V426.666667H170.666667z" p-id="1956"></path></svg>