<svg t="1715839442162" class="icon" viewBox="0 0 1024 1024" version="1.1" xmlns="http://www.w3.org/2000/svg" p-id="1623" width="128" height="128"><path d="M512 512m-512 0a512 512 0 1 0 1024 0 512 512 0 1 0-1024 0Z" fill="#5EAAFF" opacity=".149" p-id="1624"></path><path d="M512 383.022545a130.978909 130.978909 0 0 0-130.909091 130.909091c0 72.727273 58.181818 130.909091 130.909091 130.909091s130.909091-58.181818 130.909091-130.909091A130.978909 130.978909 0 0 0 512 383.022545z m41.704727 113.454546c7.749818 0 11.636364 3.886545 11.636364 11.636364 0 7.773091-3.886545 11.636364-11.636364 11.636363h-29.090909v10.682182h29.090909c7.749818 0 11.636364 3.863273 11.636364 11.636364 0 7.749818-3.886545 11.636364-11.636364 11.636363h-29.090909v24.226909c0 5.818182-0.977455 8.727273-1.954909 10.682182-1.931636 1.931636-4.840727 2.909091-9.681454 2.909091-4.864 0-7.773091-0.977455-9.704728-2.909091-1.931636-1.954909-2.909091-5.818182-2.909091-10.682182v-24.226909h-29.090909c-7.749818 0-11.636364-3.886545-11.636363-11.636363 0-7.773091 3.886545-11.636364 11.636363-11.636364h29.090909v-10.682182h-29.090909c-7.749818 0-11.636364-3.863273-11.636363-11.636363 0-7.749818 3.886545-11.636364 11.636363-11.636364h16.477091c-3.863273-6.772364-8.727273-13.568-12.590545-20.363636-3.886545-6.772364-8.727273-13.568-12.613818-20.363637-1.931636-3.863273-2.909091-6.772364-1.931637-9.681454a11.217455 11.217455 0 0 1 4.840727-6.795637 15.639273 15.639273 0 0 1 8.727273-2.909091c2.909091 0 4.840727 2.909091 7.749818 6.795637l32 52.363636c4.864-8.727273 10.682182-17.454545 15.522909-26.181818 4.840727-8.727273 10.658909-17.454545 15.52291-26.181818 1.931636-2.909091 2.909091-3.886545 3.863272-5.818182a7.354182 7.354182 0 0 1 3.886546-1.954909c0.977455 0 2.909091 0 3.886545 0.977454 0.954182 0.977455 2.909091 0.977455 3.863273 1.931637 3.886545 1.954909 4.864 4.864 5.818182 6.795636 0 1.931636-0.954182 5.818182-2.909091 9.704727l-25.204364 41.681455h15.522909z" fill="#5EAAFF" p-id="1625"></path><path d="M512 744.727273c-128 0-232.727273-104.727273-232.727273-232.727273 0-64 26.181818-123.159273 70.795637-166.795636h-32a19.456 19.456 0 0 1-19.409455-19.386182c0-10.658909 8.727273-19.386182 19.409455-19.386182h90.181818c8.727273 0 16.477091 5.818182 18.408727 14.545455a20.852364 20.852364 0 0 1-9.681454 22.295272 193.256727 193.256727 0 0 0-98.909091 168.727273c0 106.658909 87.272727 193.931636 193.931636 193.931636 10.658909 0 19.386182 8.727273 19.386182 19.409455A19.456 19.456 0 0 1 512 744.727273z m213.341091-46.545455H645.818182a18.967273 18.967273 0 0 1-18.432-12.613818 19.456 19.456 0 0 1 5.818182-21.317818c46.545455-37.818182 72.727273-93.090909 72.727272-152.250182 0-106.658909-87.272727-193.931636-193.931636-193.931636a19.456 19.456 0 0 1-19.386182-19.409455c0-10.658909 8.727273-19.386182 19.386182-19.386182 128 0 232.727273 104.727273 232.727273 232.727273 0 54.295273-18.432 105.704727-52.363637 146.432h32.977455c10.658909 0 19.386182 8.727273 19.386182 19.386182 0 10.658909-8.727273 20.363636-19.386182 20.363636z" fill="#5EAAFF" p-id="1626"></path></svg>