<svg version="1.0" xmlns="http://www.w3.org/2000/svg"
 width="71.000000pt" height="71.000000pt" viewBox="0 0 71.000000 71.000000"
 preserveAspectRatio="xMidYMid meet" color="#ff4687">

<g transform="translate(0.000000,71.000000) scale(0.100000,-0.100000)" stroke="white">
<path d="M306 639 l-27 -21 41 -39 c23 -22 58 -67 79 -99 36 -55 39 -57 55
-42 13 13 20 14 34 6 24 -16 21 -38 -5 -42 -31 -5 -29 -22 2 -22 37 0 97 -28
93 -42 -6 -17 -57 -23 -71 -9 -19 19 -31 12 -14 -7 27 -29 20 -54 -9 -34 -18
11 -46 72 -34 72 6 0 8 5 5 10 -4 7 -13 6 -26 -1 -11 -5 -27 -9 -37 -8 -41 7
-128 -65 -163 -133 -25 -48 -25 -72 0 -65 10 2 37 -8 61 -24 53 -36 86 -36
134 -4 20 14 50 25 66 25 43 0 90 44 90 85 0 22 10 45 27 66 35 41 37 97 5
132 -14 14 -24 40 -26 68 -6 54 -41 89 -90 89 -19 0 -39 7 -47 16 -18 22 -64
44 -92 44 -13 0 -36 -9 -51 -21z" fill="#ff4687"/>
<path d="M194 599 c-30 -11 -54 -48 -54 -82 0 -16 -11 -42 -25 -59 -14 -16
-28 -41 -31 -54 -7 -29 10 -75 37 -100 12 -11 19 -30 19 -52 0 -20 7 -43 15
-52 12 -13 13 -23 5 -44 -5 -15 -9 -42 -9 -59 1 -25 3 -22 9 16 13 78 55 150
121 211 33 31 67 56 75 56 8 0 14 4 14 10 0 6 -18 7 -43 4 -60 -8 -120 17
-115 48 3 20 8 23 43 20 33 -3 77 -19 138 -50 4 -2 7 0 7 5 -1 4 -23 18 -50
31 -65 30 -128 92 -132 130 -3 26 -6 28 -24 21z" fill="#ff4687"/>
</g>
</svg>
