<svg t="1726820097405" class="icon" viewBox="0 0 1024 1024" version="1.1" xmlns="http://www.w3.org/2000/svg" p-id="21359" width="200" height="200"><path d="M512 0C229.180952 0 0 229.180952 0 512c0 141.409524 58.514286 270.628571 151.161905 363.27619C197.485714 921.6 0 1024 0 1024h512c282.819048 0 512-229.180952 512-512S794.819048 0 512 0z m-195.047619 365.714286h268.190476c19.504762 0 36.571429 17.066667 36.571429 36.571428S604.647619 438.857143 585.142857 438.857143H316.952381c-19.504762 0-36.571429-17.066667-36.571429-36.571429S297.447619 365.714286 316.952381 365.714286z m414.47619 292.571428H316.952381c-19.504762 0-36.571429-17.066667-36.571429-36.571428S297.447619 585.142857 316.952381 585.142857h414.47619c19.504762 0 36.571429 17.066667 36.571429 36.571429S750.933333 658.285714 731.428571 658.285714z" p-id="21360"></path></svg>