<svg t="1702634294017" class="icon" viewBox="0 0 1024 1024" version="1.1" xmlns="http://www.w3.org/2000/svg" p-id="1882" width="128" height="128"><path d="M512 512m-512 0a512 512 0 1 0 1024 0 512 512 0 1 0-1024 0Z" fill="#5EAAFF" opacity=".149" p-id="1883"></path><path d="M372.363636 674.909091a23.272727 23.272727 0 0 1 0 46.545454h-93.090909a23.272727 23.272727 0 0 1 0-46.545454h93.090909z m186.181819 0a23.272727 23.272727 0 0 1 0 46.545454h-93.09091a23.272727 23.272727 0 0 1 0-46.545454h93.09091z m186.181818 0a23.272727 23.272727 0 0 1 0 46.545454h-93.090909a23.272727 23.272727 0 0 1 0-46.545454h93.090909z m-372.363637-93.090909a23.272727 23.272727 0 0 1 0 46.545454h-93.090909a23.272727 23.272727 0 0 1 0-46.545454h93.090909z m186.181819 0a23.272727 23.272727 0 0 1 0 46.545454h-93.09091a23.272727 23.272727 0 0 1 0-46.545454h93.09091z m186.181818 0a23.272727 23.272727 0 0 1 0 46.545454h-93.090909a23.272727 23.272727 0 0 1 0-46.545454h93.090909z m-372.363637-93.090909a23.272727 23.272727 0 0 1 0 46.545454h-93.090909a23.272727 23.272727 0 0 1 0-46.545454h93.090909z m186.181819 0a23.272727 23.272727 0 0 1 0 46.545454h-93.09091a23.272727 23.272727 0 0 1 0-46.545454h93.09091z m0-93.090909a23.272727 23.272727 0 0 1 0 46.545454h-93.09091a23.272727 23.272727 0 0 1 0-46.545454h93.09091z m0-93.090909a23.272727 23.272727 0 0 1 0 46.545454h-93.09091a23.272727 23.272727 0 0 1 0-46.545454h93.09091z" fill="#5EAAFF" p-id="1884"></path></svg>