<svg t="1721023835179" class="icon" viewBox="0 0 1024 1024" version="1.1" xmlns="http://www.w3.org/2000/svg" p-id="2689" width="200" height="200"><path d="M0 21.645528v547.798374a21.717922 21.717922 0 0 0 21.717922 21.717922h30.40509a21.717922 21.717922 0 0 0 21.717921-21.717922V295.508519h865.821138v591.234217H317.22644a21.717922 21.717922 0 0 0-21.717921 21.717921v30.405091a21.717922 21.717922 0 0 0 21.717921 21.717921H991.785083a21.717922 21.717922 0 0 0 21.717922-21.717921V21.717922a21.717922 21.717922 0 0 0-21.717922-21.717922H21.717922a21.717922 21.717922 0 0 0-21.717922 21.717922m73.840933 52.195404h865.821138v147.826653H73.840933V73.840933z" p-id="2690"></path><path d="M423.065111 782.641499H348.717427V647.917992L72.393072 924.31474 20.125274 871.974549l276.324355-276.396748h-134.651114V521.30251l260.832238 0.434358 0.434358 260.904631z" p-id="2691"></path></svg>