<svg t="1702632516259" class="icon" viewBox="0 0 1024 1024" version="1.1" xmlns="http://www.w3.org/2000/svg" p-id="4975" width="128" height="128"><path d="M512 512m-512 0a512 512 0 1 0 1024 0 512 512 0 1 0-1024 0Z" fill="#5EAAFF" opacity=".149" p-id="4976"></path><path d="M407.016727 562.222545c-2.513455-1.117091-4.189091-1.954909-4.189091-1.954909l-0.279272-25.413818s10.053818-7.540364 13.405091-31.837091c6.423273 1.675636 8.378182-7.261091 8.936727-13.125818 0.279273-5.585455 3.630545-23.458909-3.909818-21.783273 1.675636-11.729455 2.792727-22.341818 2.234181-28.206545-1.954909-19.828364-15.639273-40.494545-50.548363-41.890909-29.602909 1.396364-48.872727 22.341818-50.827637 41.890909-0.558545 5.585455 0.558545 16.197818 2.234182 28.206545-7.819636-1.675636-4.468364 16.197818-4.189091 21.783273 0.279273 5.864727 2.513455 15.080727 8.936728 13.125818 3.072 24.017455 13.405091 31.837091 13.405091 31.837091l-0.279273 25.693091s-6.423273 3.909818-33.512727 15.080727-18.711273 2.234182-40.773819 13.125819C232.727273 606.068364 232.727273 653.265455 232.727273 653.265455c0 7.261091 5.864727 12.846545 13.125818 12.846545h63.115636c0-44.125091 39.377455-82.664727 98.024728-103.889455z m238.498909 29.60291c-28.206545-13.963636-17.314909-3.351273-51.665454-17.31491-34.350545-14.242909-42.728727-18.711273-42.728727-18.711272l-0.279273-32.395637s12.846545-9.774545 17.035636-40.494545c8.098909 2.234182 10.891636-9.495273 11.170909-16.756364 0.558545-7.261091 4.747636-29.602909-5.026909-27.648 1.954909-15.080727 3.630545-28.485818 2.792727-35.746909-2.513455-25.134545-20.107636-51.665455-64.512-53.341091-37.701818 1.954909-62.277818 28.206545-64.791272 53.341091-0.837818 7.261091 0.837818 20.666182 2.792727 35.746909-9.774545-1.954909-5.585455 20.386909-5.306182 27.648 0.558545 7.540364 3.072 19.269818 11.170909 16.756364 3.909818 30.72 17.035636 40.494545 17.035637 40.494545l-0.279273 32.674909s-8.098909 5.026909-42.728727 18.990546c-34.350545 14.242909-23.738182 3.072-51.665455 16.756364-44.404364 21.783273-44.404364 82.106182-44.404364 82.106181 0 9.216 7.540364 16.477091 16.756364 16.477091h322.280727c9.216 0 16.756364-7.261091 16.756364-16.477091 0 0 0-60.322909-44.404364-82.106181zM791.272727 652.986182s0-47.197091-34.909091-64.512c-22.062545-10.891636-13.684364-1.954909-40.773818-13.125818-27.089455-11.170909-33.512727-15.080727-33.512727-15.080728l-0.279273-25.693091s10.053818-7.819636 13.405091-31.83709c6.423273 1.954909 8.378182-7.261091 8.936727-13.125819 0.279273-5.585455 3.630545-23.458909-4.189091-21.783272 1.675636-11.729455 2.792727-22.341818 2.234182-28.206546-1.954909-19.828364-21.224727-40.494545-50.827636-41.890909-34.909091 1.396364-48.593455 22.062545-50.548364 41.890909-0.558545 5.585455 0.558545 16.197818 2.234182 28.206546-7.819636-1.675636-4.468364 16.197818-3.909818 21.783272 0.279273 5.864727 2.513455 15.080727 8.936727 13.125819 3.072 24.017455 13.405091 31.837091 13.405091 31.83709l-0.279273 25.413819s-1.396364 0.837818-4.189091 1.954909c58.647273 21.504 98.304 59.764364 98.304 103.889454h63.115637c6.981818 0.279273 12.846545-5.585455 12.846545-12.846545z" fill="#5EAAFF" p-id="4977"></path></svg>