<svg t="1689670774492" class="icon" viewBox="0 0 1024 1024" version="1.1" xmlns="http://www.w3.org/2000/svg" p-id="3975" width="200" height="200"><path d="M402.285714 638.537143m-170.666666 0a170.666667 170.666667 0 1 0 341.333333 0 170.666667 170.666667 0 1 0-341.333333 0Z" fill="#FFCD00" p-id="3976"></path><path d="M841.142857 757.51619h-23.649524c-6.826667 0-12.190476-5.36381-12.190476-12.190476s5.36381-12.190476 12.190476-12.190476H828.952381V364.007619H146.285714v9.020952c0 6.826667-5.36381 12.190476-12.190476 12.190477s-12.190476-5.36381-12.190476-12.190477v-21.211428c0-6.826667 5.36381-12.190476 12.190476-12.190476h707.047619c6.826667 0 12.190476 5.36381 12.190476 12.190476v393.752381a12.190476 12.190476 0 0 1-12.190476 11.946666z" p-id="3977"></path><path d="M914.285714 659.992381h-23.649524c-6.826667 0-12.190476-5.36381-12.190476-12.190476s5.36381-12.190476 12.190476-12.190476H902.095238V290.864762H243.809524v9.020952c0 6.826667-5.36381 12.190476-12.190476 12.190476s-12.190476-5.36381-12.190477-12.190476v-21.211428c0-6.826667 5.36381-12.190476 12.190477-12.190476h682.666666c6.826667 0 12.190476 5.36381 12.190476 12.190476v369.371428a12.190476 12.190476 0 0 1-12.190476 11.946667z" p-id="3978"></path><path d="M987.428571 562.468571h-23.649523c-6.826667 0-12.190476-5.36381-12.190477-12.190476s5.36381-12.190476 12.190477-12.190476H975.238095V217.721905H341.333333v9.020952c0 6.826667-5.36381 12.190476-12.190476 12.190476s-12.190476-5.36381-12.190476-12.190476v-21.211428c0-6.826667 5.36381-12.190476 12.190476-12.190477h658.285714c6.826667 0 12.190476 5.36381 12.190477 12.190477v344.990476a12.190476 12.190476 0 0 1-12.190477 11.946666z" p-id="3979"></path><path d="M768 855.04h-731.428571c-6.826667 0-12.190476-5.36381-12.190477-12.190476V424.96c0-6.826667 5.36381-12.190476 12.190477-12.190476h731.428571c6.826667 0 12.190476 5.36381 12.190476 12.190476v418.133333a12.190476 12.190476 0 0 1-12.190476 11.946667z m-719.238095-24.380952h707.047619V437.150476H48.761905v393.508572z" p-id="3980"></path><path d="M185.539048 646.095238h-48.761905c-6.826667 0-12.190476-5.36381-12.190476-12.190476s5.36381-12.190476 12.190476-12.190476h48.761905c6.826667 0 12.190476 5.36381 12.190476 12.190476s-5.607619 12.190476-12.190476 12.190476zM667.794286 646.095238h-48.761905c-6.826667 0-12.190476-5.36381-12.190476-12.190476s5.36381-12.190476 12.190476-12.190476h48.761905c6.826667 0 12.190476 5.36381 12.190476 12.190476s-5.36381 12.190476-12.190476 12.190476zM402.285714 598.064762a11.459048 11.459048 0 0 1-8.533333-3.657143l-59.245714-59.245714c-4.87619-4.87619-4.87619-12.434286 0-17.310476s12.434286-4.87619 17.310476 0l50.468571 50.468571 50.468572-50.468571c4.87619-4.87619 12.434286-4.87619 17.310476 0s4.87619 12.434286 0 17.310476l-59.245714 59.245714a11.459048 11.459048 0 0 1-8.533334 3.657143zM481.28 628.540952h-158.232381c-6.826667 0-12.190476-5.36381-12.190476-12.190476s5.36381-12.190476 12.190476-12.190476h158.232381c6.826667 0 12.190476 5.36381 12.190476 12.190476s-5.36381 12.190476-12.190476 12.190476zM481.28 689.249524h-158.232381c-6.826667 0-12.190476-5.36381-12.190476-12.190476s5.36381-12.190476 12.190476-12.190477h158.232381c6.826667 0 12.190476 5.36381 12.190476 12.190477s-5.36381 12.190476-12.190476 12.190476z" p-id="3981"></path><path d="M402.285714 753.127619c-6.826667 0-12.190476-5.36381-12.190476-12.190476v-155.062857c0-6.826667 5.36381-12.190476 12.190476-12.190476s12.190476 5.36381 12.190476 12.190476v155.062857c0 6.826667-5.36381 12.190476-12.190476 12.190476z" p-id="3982"></path></svg>