<svg t="1702632795443" class="icon" viewBox="0 0 1024 1024" version="1.1" xmlns="http://www.w3.org/2000/svg" p-id="5134" width="128" height="128"><path d="M512 512m-512 0a512 512 0 1 0 1024 0 512 512 0 1 0-1024 0Z" fill="#5EAAFF" opacity=".149" p-id="5135"></path><path d="M512 349.090909c65.792-0.372364 110.545455 32.162909 110.545455 32.162909 23.04-7.959273 39.098182-26.926545 39.098181-49.291636 0-30.231273-28.625455-53.294545-62.626909-53.294546a60.509091 60.509091 0 0 0-21.527272 3.956364 44.753455 44.753455 0 0 0-7.098182 3.351273c-1.163636 0.465455-3.723636-0.046545-4.421818-0.954182a72.610909 72.610909 0 0 0-12.241455-13.614546c-10.775273-9.378909-23.645091-15.197091-38.283636-15.19709s-27.392 5.818182-38.283637 15.220363a70.004364 70.004364 0 0 0-11.962182 13.335273c-1.000727 1.163636-3.560727 1.768727-4.421818 1.326545a49.780364 49.780364 0 0 0-7.307636-3.467636 60.276364 60.276364 0 0 0-21.527273-3.956364c-34.001455 0-62.603636 23.133091-62.603636 53.294546 0 19.176727 11.776 35.793455 29.556363 45.172363 0.046545 0 47.313455-27.694545 113.105455-28.043636z m0 23.272727c69.818182 0 112.989091 27.461818 112.989091 27.461819 1.675636 1.163636 3.072 2.210909 4.957091 3.630545 12.497455 9.681455 24.994909 20.782545 36.677818 33.210182C700.718545 472.948364 721.454545 513.117091 721.454545 556.450909c0 73.821091-28.974545 125.370182-79.988363 156.090182-37.562182 22.621091-83.968 32.186182-131.490909 32.186182C396.590545 744.727273 302.545455 684.055273 302.545455 556.450909c0-46.010182 20.573091-87.435636 54.528-123.694545 11.636364-12.497455 24.110545-23.482182 36.608-32.884364 2.048-1.582545 3.956364-2.932364 5.72509-4.235636 0 0 42.775273-23.272727 112.593455-23.272728z m0 93.090909a11.636364 11.636364 0 0 0-11.636364 11.636364V535.272727H442.181818a11.636364 11.636364 0 1 0 0 23.272728h58.158546l0.023272 58.181818a11.636364 11.636364 0 1 0 23.272728 0l-0.023273-58.181818H581.818182a11.636364 11.636364 0 1 0 0-23.272728h-58.181818v-58.181818a11.636364 11.636364 0 0 0-11.636364-11.636364z" fill="#5EAAFF" p-id="5136"></path></svg>