<svg t="1689671117535" class="icon" viewBox="0 0 1024 1024" version="1.1" xmlns="http://www.w3.org/2000/svg" p-id="11530" width="200" height="200"><path d="M124 520m41.52 0l568.96 0q41.52 0 41.52 41.52l0 276.96q0 41.52-41.52 41.52l-568.96 0q-41.52 0-41.52-41.52l0-276.96q0-41.52 41.52-41.52Z" fill="#20C997" p-id="11531"></path><path d="M675.2 835H224.8a55.36 55.36 0 0 0-55.36-55.36v-159.28a55.36 55.36 0 0 0 55.36-55.36h450.4a55.36 55.36 0 0 0 55.36 55.36v159.28a55.36 55.36 0 0 0-55.36 55.36z" fill="#63E6BE" p-id="11532"></path><path d="M449.148782 762.664274a62.66 62.68 0.78 1 0 1.706544-125.348384 62.66 62.68 0.78 1 0-1.706544 125.348384Z" fill="#20C997" p-id="11533"></path><path d="M288 188m47.12 0l449.76 0q47.12 0 47.12 47.12l0 597.76q0 47.12-47.12 47.12l-449.76 0q-47.12 0-47.12-47.12l0-597.76q0-47.12 47.12-47.12Z" fill="#495057" p-id="11534"></path><path d="M354.14 252.64m9.42 0l392.9 0q9.42 0 9.42 9.42l0 79.56q0 9.42-9.42 9.42l-392.9 0q-9.42 0-9.42-9.42l0-79.56q0-9.42 9.42-9.42Z" fill="#CED4DA" p-id="11535"></path><path d="M354.12 404.16m12.62 0l48.36 0q12.62 0 12.62 12.62l0 48.34q0 12.62-12.62 12.62l-48.36 0q-12.62 0-12.62-12.62l0-48.34q0-12.62 12.62-12.62Z" fill="#868E96" p-id="11536"></path><path d="M466.84 404.16m12.62 0l48.36 0q12.62 0 12.62 12.62l0 48.34q0 12.62-12.62 12.62l-48.36 0q-12.62 0-12.62-12.62l0-48.34q0-12.62 12.62-12.62Z" fill="#868E96" p-id="11537"></path><path d="M579.56 404.16m12.62 0l48.36 0q12.62 0 12.62 12.62l0 48.34q0 12.62-12.62 12.62l-48.36 0q-12.62 0-12.62-12.62l0-48.34q0-12.62 12.62-12.62Z" fill="#868E96" p-id="11538"></path><path d="M692.26 404.16m12.62 0l48.36 0q12.62 0 12.62 12.62l0 48.34q0 12.62-12.62 12.62l-48.36 0q-12.62 0-12.62-12.62l0-48.34q0-12.62 12.62-12.62Z" fill="#868E96" p-id="11539"></path><path d="M354.12 516.7m12.62 0l48.36 0q12.62 0 12.62 12.62l0 48.34q0 12.62-12.62 12.62l-48.36 0q-12.62 0-12.62-12.62l0-48.34q0-12.62 12.62-12.62Z" fill="#868E96" p-id="11540"></path><path d="M466.84 516.7m12.62 0l48.36 0q12.62 0 12.62 12.62l0 48.34q0 12.62-12.62 12.62l-48.36 0q-12.62 0-12.62-12.62l0-48.34q0-12.62 12.62-12.62Z" fill="#868E96" p-id="11541"></path><path d="M579.56 516.7m12.62 0l48.36 0q12.62 0 12.62 12.62l0 48.34q0 12.62-12.62 12.62l-48.36 0q-12.62 0-12.62-12.62l0-48.34q0-12.62 12.62-12.62Z" fill="#868E96" p-id="11542"></path><path d="M692.26 516.7m12.62 0l48.36 0q12.62 0 12.62 12.62l0 48.34q0 12.62-12.62 12.62l-48.36 0q-12.62 0-12.62-12.62l0-48.34q0-12.62 12.62-12.62Z" fill="#868E96" p-id="11543"></path><path d="M354.12 629.24m12.62 0l48.36 0q12.62 0 12.62 12.62l0 48.34q0 12.62-12.62 12.62l-48.36 0q-12.62 0-12.62-12.62l0-48.34q0-12.62 12.62-12.62Z" fill="#868E96" p-id="11544"></path><path d="M466.84 629.24m12.62 0l48.36 0q12.62 0 12.62 12.62l0 48.34q0 12.62-12.62 12.62l-48.36 0q-12.62 0-12.62-12.62l0-48.34q0-12.62 12.62-12.62Z" fill="#868E96" p-id="11545"></path><path d="M579.56 629.24m12.62 0l48.36 0q12.62 0 12.62 12.62l0 48.34q0 12.62-12.62 12.62l-48.36 0q-12.62 0-12.62-12.62l0-48.34q0-12.62 12.62-12.62Z" fill="#868E96" p-id="11546"></path><path d="M692.26 629.24m12.62 0l48.36 0q12.62 0 12.62 12.62l0 48.34q0 12.62-12.62 12.62l-48.36 0q-12.62 0-12.62-12.62l0-48.34q0-12.62 12.62-12.62Z" fill="#868E96" p-id="11547"></path><path d="M354.12 741.78m12.62 0l48.36 0q12.62 0 12.62 12.62l0 48.34q0 12.62-12.62 12.62l-48.36 0q-12.62 0-12.62-12.62l0-48.34q0-12.62 12.62-12.62Z" fill="#868E96" p-id="11548"></path><path d="M466.84 741.78m12.62 0l48.36 0q12.62 0 12.62 12.62l0 48.34q0 12.62-12.62 12.62l-48.36 0q-12.62 0-12.62-12.62l0-48.34q0-12.62 12.62-12.62Z" fill="#868E96" p-id="11549"></path><path d="M579.56 741.78m12.62 0l48.36 0q12.62 0 12.62 12.62l0 48.34q0 12.62-12.62 12.62l-48.36 0q-12.62 0-12.62-12.62l0-48.34q0-12.62 12.62-12.62Z" fill="#868E96" p-id="11550"></path><path d="M692.26 741.78m12.62 0l48.36 0q12.62 0 12.62 12.62l0 48.34q0 12.62-12.62 12.62l-48.36 0q-12.62 0-12.62-12.62l0-48.34q0-12.62 12.62-12.62Z" fill="#868E96" p-id="11551"></path><path d="M732 714m-188 0a188 188 0 1 0 376 0 188 188 0 1 0-376 0Z" fill="#FCC419" p-id="11552"></path><path d="M732 714m-150 0a150 150 0 1 0 300 0 150 150 0 1 0-300 0Z" fill="#FFD43B" p-id="11553"></path><path d="M764.2 672.76a10.3 10.3 0 0 1-13.12-2.28 18.58 18.58 0 0 0-4.66-4.16 25.36 25.36 0 0 0-27.38 2.18 16 16 0 0 0-6 12.84q0 10.68 15.86 17.18l14.54 6q17.74 7.18 26 17.52a39.48 39.48 0 0 1 8.22 25.36 44.54 44.54 0 0 1-13.4 33.24 46 46 0 0 1-33.52 13.22q-18.98 0-31.34-11.24a46.22 46.22 0 0 1-12.24-19.28 11.28 11.28 0 0 1 8.12-14.8 11.3 11.3 0 0 1 13.22 8.14 21.72 21.72 0 0 0 3.28 7.14q6.8 9.44 19.82 9.44a23 23 0 0 0 17.08-6.9 23.84 23.84 0 0 0 6.8-17.46 24.54 24.54 0 0 0-1.18-7.8 19.8 19.8 0 0 0-3.68-6.52 29.48 29.48 0 0 0-6.46-5.58 62.32 62.32 0 0 0-9.44-4.96l-14-5.86q-30-12.66-30-37.02a35.12 35.12 0 0 1 12.56-27.48 45.36 45.36 0 0 1 31.24-11.14 41.24 41.24 0 0 1 32.12 14.38 10.38 10.38 0 0 1-2.44 15.84z" fill="#F08C00" p-id="11554"></path><path d="M732 816a11.54 11.54 0 0 1-11.54-11.54v-13.12a11.54 11.54 0 0 1 23.1 0v13.12A11.54 11.54 0 0 1 732 816zM732 657.16a11.54 11.54 0 0 1-11.54-11.54v-13.12a11.54 11.54 0 1 1 23.1 0v13.12a11.54 11.54 0 0 1-11.56 11.54z" fill="#F08C00" p-id="11555"></path></svg>