<svg t="1707121075792" class="icon" viewBox="0 0 1024 1024" version="1.1" xmlns="http://www.w3.org/2000/svg" p-id="12280" width="128" height="128">
  <path d="M947.989333 310.314667a409.706667 409.706667 0 0 0-20.586666-39.146667l51.2-36.714667c12.053333-8.682667 15.509333-24.554667 7.658666-35.52-7.872-10.965333-24-12.8-36.096-4.138666l-49.92 35.776a535.893333 535.893333 0 0 0-41.493333-49.941334c-22.037333-23.232-57.002667 11.84-35.029333 35.029334a436.053333 436.053333 0 0 1 36.245333 43.797333l-47.701333 34.218667c-3.477333-43.562667-40.149333-78.613333-84.522667-78.613334H626.986667a85.269333 85.269333 0 0 0-85.205334 85.162667v187.349333l-280.405333 201.024v-167.914666h218.944V474.666667H261.333333v-161.6a38.890667 38.890667 0 0 1 39.210667-39.146667h188.608v-46.016h-188.608c-46.613333 0-85.162667 38.549333-85.162667 85.162667v392.810666c0 4.992 0.64 9.856 1.493334 14.634667L162.218667 759.68c-105.024-148.245333-100.309333-353.109333 5.952-501.184 127.594667-177.770667 377.984-223.381333 564.821333-114.794667 27.712 16.085333 52.650667-26.709333 25.024-42.837333-214.229333-124.48-486.4-65.130667-632.682667 132.672-121.493333 164.266667-115.2 390.528-2.432 554.346667l-57.173333 40.981333c-12.074667 8.661333-15.530667 24.554667-7.68 35.477333 7.850667 10.965333 24 12.842667 36.096 4.181334l58.517333-41.941334c4.565333 5.354667 8.896 10.901333 13.717334 16.085334 155.093333 166.442667 415.509333 194.88 606.037333 73.984 201.856-128.256 273.024-390.592 175.573333-606.336z m-360.128-10.090667a39.253333 39.253333 0 0 1 39.210667-39.210667h100.693333a39.253333 39.253333 0 0 1 39.210667 39.210667v25.92l-179.114667 128.405333v-154.325333z m352.405334 267.904c-12.309333 109.354667-72.149333 209.408-155.989334 279.082667-176.021333 146.346667-440.853333 116.586667-591.424-49.450667l46.4-33.28a84.757333 84.757333 0 0 0 61.205334 26.602667h183.957333v-46.016H300.586667c-8.746667 0-16.768-2.986667-23.296-7.829334l264.490666-189.632v275.882667H587.84v-308.906667l179.114667-128.405333v298.069333a39.253333 39.253333 0 0 1-39.210667 39.125334h-58.154667v46.016h58.154667c46.634667 0 85.184-38.549333 85.184-85.141334V353.216l73.493333-52.693333c45.589333 80.32 64.469333 173.376 53.845334 267.605333z" p-id="12281">
  </path>
</svg>