<svg t="1700128340952" class="icon" viewBox="0 0 1024 1024" version="1.1" xmlns="http://www.w3.org/2000/svg" p-id="4318" width="200" height="200"><path d="M480 551.68a273.28 273.28 0 1 1 272.64-273.28A273.92 273.92 0 0 1 480 551.68z m0-483.2a209.92 209.92 0 1 0 209.92 209.92A209.92 209.92 0 0 0 480 68.48z" p-id="4319"></path><path d="M602.24 1011.84h-576v-70.4a453.12 453.12 0 0 1 454.4-453.12 32 32 0 0 1 0 64 389.76 389.76 0 0 0-389.76 389.76v7.04h512a32 32 0 0 1 0 64zM921.6 677.76H617.6a31.36 31.36 0 0 1 0-64h304a31.36 31.36 0 0 1 0 64zM921.6 785.28H617.6a31.36 31.36 0 0 1-31.36-31.36 30.72 30.72 0 0 1 31.36-31.36h304a30.72 30.72 0 0 1 31.36 31.36 31.36 31.36 0 0 1-31.36 31.36z" p-id="4320"></path><path d="M921.6 885.12H617.6a31.36 31.36 0 0 1 0-64h304a31.36 31.36 0 0 1 0 64z" p-id="4321"></path></svg>