<svg t="1721198745725" class="icon" viewBox="0 0 1024 1024" version="1.1" xmlns="http://www.w3.org/2000/svg" p-id="9424" width="200" height="200"><path d="M820.266667 491.029333l-112.128-64.149333a3.584 3.584 0 0 0-5.397334 3.221333v159.573334c0 2.986667 1.621333 5.418667 4.053334 7.04l112.149333 64.149333a3.584 3.584 0 0 0 5.376-3.242667v-159.573333a8.384 8.384 0 0 0-4.053333-7.018667zM663.68 402.666667l-112.128-64.170667a3.584 3.584 0 0 0-5.376 3.242667v248.277333c0 2.154667 1.6 3.776 3.776 3.776h114.282667a3.690667 3.690667 0 0 0 3.776-3.776v-180.352a8.917333 8.917333 0 0 0-4.309334-6.997333zM398.442667 660.096l112.149333-64.149333a8.042667 8.042667 0 0 0 4.053333-7.018667V323.669333c0-2.688-2.986667-4.565333-5.397333-3.221333l-112.149333 64.149333a8.042667 8.042667 0 0 0-4.053334 7.018667V656.853333c0 2.965333 2.986667 4.586667 5.397334 3.221334zM855.594667 517.717333v72.768c0 2.176 1.621333 3.776 3.776 3.776h127.253333c3.776 0 5.12-5.12 1.877333-6.741333l-127.232-72.768c-2.709333-1.621333-5.674667 0.256-5.674666 2.965333zM356.117333 408.042667L44.48 586.773333c-3.221333 1.898667-1.877333 6.741333 1.898667 6.741334H357.973333a3.690667 3.690667 0 0 0 3.776-3.776V411.306667c-0.277333-2.965333-3.242667-4.586667-5.653333-3.242667z" p-id="9425"></path></svg>