<svg t="1689669978016" class="icon" viewBox="0 0 1024 1024" version="1.1" xmlns="http://www.w3.org/2000/svg" p-id="23811" width="200" height="200"><path d="M512 512m-448 0a448 448 0 1 0 896 0 448 448 0 1 0-896 0Z" fill="#f4ea2a" p-id="23812" data-spm-anchor-id="a313x.7781069.0.i10" class=""></path><path d="M640 542.5h-96v-64h96c17.7 0 32-14.3 32-32s-14.3-32-32-32h-55l75.5-75.5c11.3-11.3 11.3-29.7 0-41s-29.7-11.3-41 0L512 405.5 404.5 298c-11.3-11.3-29.7-11.3-41 0s-11.3 29.7 0 41l75.5 75.5h-55c-17.7 0-32 14.3-32 32s14.3 32 32 32h96v64h-96c-17.7 0-32 14.3-32 32s14.3 32 32 32h96v96c0 17.7 14.3 32 32 32s32-14.3 32-32v-96h96c17.7 0 32-14.3 32-32s-14.3-32-32-32z" fill="#ffffff" p-id="23813" data-spm-anchor-id="a313x.7781069.0.i11" class=""></path></svg>