<svg t="1689670416135" class="icon" viewBox="0 0 1024 1024" version="1.1" xmlns="http://www.w3.org/2000/svg" p-id="28619" width="200" height="200"><path d="M610 113H241.62A73.56 73.56 0 0 0 168 186.48v581.04a73.56 73.56 0 0 0 73.62 73.48h448.76A73.56 73.56 0 0 0 764 767.52V266.66z" fill="#FFD43B" p-id="28620"></path><path d="M763.5 266.78H646a36.46 36.46 0 0 1-36.48-36.42V113z" fill="#FCC419" p-id="28621"></path><path d="M505.66 286.56a12.7 12.7 0 0 1-16.16-2.82 22.88 22.88 0 0 0-5.74-5.12 31.28 31.28 0 0 0-33.76 2.68 19.78 19.78 0 0 0-7.44 15.78q0 13.12 19.54 21.14l18 7.32q21.86 8.82 32 21.54a48.5 48.5 0 0 1 10.12 31.18q0 24.72-16.52 40.86a56.74 56.74 0 0 1-41.28 16.26q-23.38 0-38.62-13.82a56.82 56.82 0 0 1-15.08-23.7 13.88 13.88 0 0 1 10-18.2 14 14 0 0 1 16.28 10 26.68 26.68 0 0 0 4 8.78q8.38 11.62 24.42 11.62a28.38 28.38 0 0 0 21.04-8.48 29.28 29.28 0 0 0 8.38-21.48 30.12 30.12 0 0 0-1.46-9.58 24.32 24.32 0 0 0-4.54-8 36.3 36.3 0 0 0-8-6.86 76.82 76.82 0 0 0-11.64-6l-17.32-7.2q-36.86-15.56-36.86-45.52a43.14 43.14 0 0 1 15.48-33.78q15.46-13.7 38.5-13.7a50.84 50.84 0 0 1 39.56 17.68 12.76 12.76 0 0 1-2.9 19.42z" fill="#F08C00" p-id="28622"></path><path d="M466 462.64a14.22 14.22 0 0 1-14.22-14.2v-16.12a14.22 14.22 0 0 1 28.46 0v16.12a14.22 14.22 0 0 1-14.24 14.2zM466 267.38a14.22 14.22 0 0 1-14.22-14.2v-16.12a14.22 14.22 0 0 1 28.46 0v16.12a14.22 14.22 0 0 1-14.24 14.2z" fill="#F08C00" p-id="28623"></path><path d="M300.36 561.94m17.16 0l296.96 0q17.16 0 17.16 17.16l0 0.02q0 17.16-17.16 17.16l-296.96 0q-17.16 0-17.16-17.16l0-0.02q0-17.16 17.16-17.16Z" fill="#FAB005" p-id="28624"></path><path d="M300.36 679.26m17.16 0l296.96 0q17.16 0 17.16 17.16l0 0.02q0 17.16-17.16 17.16l-296.96 0q-17.16 0-17.16-17.16l0-0.02q0-17.16 17.16-17.16Z" fill="#FAB005" p-id="28625"></path><path d="M532 463m30.5 0l291 0q30.5 0 30.5 30.5l0 387q0 30.5-30.5 30.5l-291 0q-30.5 0-30.5-30.5l0-387q0-30.5 30.5-30.5Z" fill="#495057" p-id="28626"></path><path d="M574.8 504.86m6.1 0l254.22 0q6.1 0 6.1 6.1l0 51.5q0 6.1-6.1 6.1l-254.22 0q-6.1 0-6.1-6.1l0-51.5q0-6.1 6.1-6.1Z" fill="#CED4DA" p-id="28627"></path><path d="M574.78 602.94m8.16 0l31.3 0q8.16 0 8.16 8.16l0 31.32q0 8.16-8.16 8.16l-31.3 0q-8.16 0-8.16-8.16l0-31.32q0-8.16 8.16-8.16Z" fill="#868E96" p-id="28628"></path><path d="M647.72 602.94m8.16 0l31.3 0q8.16 0 8.16 8.16l0 31.32q0 8.16-8.16 8.16l-31.3 0q-8.16 0-8.16-8.16l0-31.32q0-8.16 8.16-8.16Z" fill="#868E96" p-id="28629"></path><path d="M720.66 602.94m8.16 0l31.3 0q8.16 0 8.16 8.16l0 31.32q0 8.16-8.16 8.16l-31.3 0q-8.16 0-8.16-8.16l0-31.32q0-8.16 8.16-8.16Z" fill="#868E96" p-id="28630"></path><path d="M793.58 602.94m8.16 0l31.3 0q8.16 0 8.16 8.16l0 31.32q0 8.16-8.16 8.16l-31.3 0q-8.16 0-8.16-8.16l0-31.32q0-8.16 8.16-8.16Z" fill="#868E96" p-id="28631"></path><path d="M574.78 675.8m8.16 0l31.3 0q8.16 0 8.16 8.16l0 31.32q0 8.16-8.16 8.16l-31.3 0q-8.16 0-8.16-8.16l0-31.32q0-8.16 8.16-8.16Z" fill="#868E96" p-id="28632"></path><path d="M647.72 675.8m8.16 0l31.3 0q8.16 0 8.16 8.16l0 31.32q0 8.16-8.16 8.16l-31.3 0q-8.16 0-8.16-8.16l0-31.32q0-8.16 8.16-8.16Z" fill="#868E96" p-id="28633"></path><path d="M720.66 675.8m8.16 0l31.3 0q8.16 0 8.16 8.16l0 31.32q0 8.16-8.16 8.16l-31.3 0q-8.16 0-8.16-8.16l0-31.32q0-8.16 8.16-8.16Z" fill="#868E96" p-id="28634"></path><path d="M793.58 675.8m8.16 0l31.3 0q8.16 0 8.16 8.16l0 31.32q0 8.16-8.16 8.16l-31.3 0q-8.16 0-8.16-8.16l0-31.32q0-8.16 8.16-8.16Z" fill="#868E96" p-id="28635"></path><path d="M574.78 748.66m8.16 0l31.3 0q8.16 0 8.16 8.16l0 31.32q0 8.16-8.16 8.16l-31.3 0q-8.16 0-8.16-8.16l0-31.32q0-8.16 8.16-8.16Z" fill="#868E96" p-id="28636"></path><path d="M647.72 748.66m8.16 0l31.3 0q8.16 0 8.16 8.16l0 31.32q0 8.16-8.16 8.16l-31.3 0q-8.16 0-8.16-8.16l0-31.32q0-8.16 8.16-8.16Z" fill="#868E96" p-id="28637"></path><path d="M720.66 748.66m8.16 0l31.3 0q8.16 0 8.16 8.16l0 31.32q0 8.16-8.16 8.16l-31.3 0q-8.16 0-8.16-8.16l0-31.32q0-8.16 8.16-8.16Z" fill="#868E96" p-id="28638"></path><path d="M793.58 748.66m8.02 0l31.58 0q8.02 0 8.02 8.02l0 104.46q0 8.02-8.02 8.02l-31.58 0q-8.02 0-8.02-8.02l0-104.46q0-8.02 8.02-8.02Z" fill="#868E96" p-id="28639"></path><path d="M574.78 821.52m8.16 0l31.3 0q8.16 0 8.16 8.16l0 31.32q0 8.16-8.16 8.16l-31.3 0q-8.16 0-8.16-8.16l0-31.32q0-8.16 8.16-8.16Z" fill="#868E96" p-id="28640"></path><path d="M647.72 821.52m8.16 0l31.3 0q8.16 0 8.16 8.16l0 31.32q0 8.16-8.16 8.16l-31.3 0q-8.16 0-8.16-8.16l0-31.32q0-8.16 8.16-8.16Z" fill="#868E96" p-id="28641"></path><path d="M720.66 821.52m8.16 0l31.3 0q8.16 0 8.16 8.16l0 31.32q0 8.16-8.16 8.16l-31.3 0q-8.16 0-8.16-8.16l0-31.32q0-8.16 8.16-8.16Z" fill="#868E96" p-id="28642"></path></svg>