<svg t="1721025977016" class="icon" viewBox="0 0 1024 1024" version="1.1" xmlns="http://www.w3.org/2000/svg" p-id="7722" width="200" height="200"><path d="M568 64l42.24 126.592c20.736 6.4 40.704 14.656 59.52 24.704l119.424-59.712 79.168 79.232-59.648 119.36c10.048 18.88 18.368 38.784 24.704 59.584l126.592 42.24v112l-24.064 7.936h-242.88A192 192 0 1 0 512 704l0.064 256.064h-56l-42.176-126.592a333.888 333.888 0 0 1-59.584-24.64l-119.424 59.648-79.168-79.232 59.648-119.296a333.888 333.888 0 0 1-24.704-59.584L64 568.064v-112l126.528-42.24c6.4-20.8 14.72-40.704 24.704-59.584l-59.648-119.424L234.88 155.648l119.296 59.712c18.88-10.112 38.784-18.432 59.584-24.768L455.936 64h112zM960 896v64H576v-64h384z m0-128v64H576v-64h384z m0-128v64H576v-64h384z" p-id="7723"></path></svg>