<svg t="1715837079591" class="icon" viewBox="0 0 1024 1024" version="1.1"
    xmlns="http://www.w3.org/2000/svg" p-id="3198" width="128" height="128">
    <path d="M512 512m-512 0a512 512 0 1 0 1024 0 512 512 0 1 0-1024 0Z" fill="#5EAAFF" opacity=".149" p-id="18028"></path>
    <path transform="scale(0.7) translate(200,200)" d="M951.901 474.408c-0.696-1.003-26.066-36.08-43.306-59.91l13.44-13.44c12.218-12.294 12.218-32.171 0-44.376L636.986 71.245c-11.785-11.756-32.597-11.756-44.354 0L75.315 589.184c-12.22 12.25-12.22 32.112 0 44.361L230.52 788.863v50.014c0 80.586 147.428 122.695 293.086 122.695 145.658 0 293.087-42.109 293.087-122.695v-227.81l128.242-92.85a31.314 31.314 0 0 0 12.51-20.473 31.238 31.238 0 0 0-5.545-23.336zM230.783 618.87c-0.117 1.57-0.262 3.138-0.262 4.766v76.56l-88.707-88.825L614.81 137.78l240.751 241.09-147.37 147.514c-52.771-16.856-118.837-25.487-184.584-25.487-142.725 0-287.106 40.54-292.824 117.973z m292.824 292.543c-39.012 0-73.64-2.965-103.598-7.818-48.59-7.818-84.874-20.458-108.27-33.42-20.202-11.13-30.827-22.464-31.059-31.066 0-0.058-0.058-0.174-0.058-0.233 0-6.974 7.17-15.867 20.638-24.992 19.07 8.95 41.073 16.39 65.108 22.376a575.166 575.166 0 0 0 26.53 5.754c0.174 0.029 0.348 0.087 0.493 0.116 24.817 4.766 51.175 8.08 78.054 9.998 3.831 0.233 7.692 0.464 11.552 0.697a726.562 726.562 0 0 0 40.609 1.134c82.641 0 165.861-13.572 222.405-40.075 13.499 9.125 20.64 18.017 20.64 24.992-0.058 24.644-85.803 72.537-243.044 72.537zM746.01 756.169c-7.604 5.115-17.096 10.287-28.764 15.286-11.263 4.825-24.586 9.417-39.592 13.601-33.294 9.241-75.443 16.275-126.239 18.163-8.94 0.377-18.259 0.552-27.81 0.552-1.304 0-2.495-0.058-3.8-0.058-25.456-0.117-48.94-1.57-70.536-3.895a681.782 681.782 0 0 1-12.657-1.511c-25.34-3.255-47.72-7.906-67.023-13.252-15.007-4.184-28.331-8.776-39.593-13.6-11.64-5-21.162-10.171-28.737-15.287-13.469-9.126-20.58-17.93-20.58-24.934 0-6.974 7.081-15.868 20.55-24.934 21.945 10.257 47.895 18.599 76.255 24.964 26.733 5.958 55.587 10.17 85.281 12.612 8.794 0.697 17.648 1.25 26.53 1.656 11.204 0.581 22.496 0.843 33.76 0.843h0.549c18.608 0 37.213-0.698 55.53-2.122 1.8-0.086 3.541-0.233 5.341-0.377 20.232-1.657 40.115-4.157 59.215-7.469 8.912-1.57 17.532-3.255 26.066-5.143 28.388-6.365 54.31-14.706 76.284-24.964 13.469 9.066 20.61 17.96 20.61 24.934-0.058 7.004-7.14 15.838-20.64 24.935z m33.528-195.58c-1.075-0.83-11.116-6.089-14.6-8.283 0 0 95.208-91.382 96.079-90.22 0 0 16.806 16.798 21.74 23.67l-103.22 74.833z m0 0" fill="#5EAAFF" p-id="3199"></path>
</svg>