<svg t="1700806315708" class="icon" viewBox="0 0 1024 1024" version="1.1" xmlns="http://www.w3.org/2000/svg" p-id="17055" width="200" height="200"><path d="M981.333333 960a21.333333 21.333333 0 0 1-21.333333 21.333333H64a21.333333 21.333333 0 0 1-21.333333-21.333333V64a21.333333 21.333333 0 0 1 42.666666 0v874.666667h874.666667a21.333333 21.333333 0 0 1 21.333333 21.333333zM171.666667 672.666667a63.293333 63.293333 0 0 0 1.426666 6.193333 64.146667 64.146667 0 0 0 44.053334 44.053333 63.293333 63.293333 0 0 0 6.193333 1.426667c1.046667 0.186667 2.106667 0.353333 3.173333 0.486667a65.006667 65.006667 0 0 0 16.306667 0c1.066667-0.133333 2.126667-0.3 3.173333-0.486667a63.293333 63.293333 0 0 0 6.193334-1.426667 64.146667 64.146667 0 0 0 44.053333-44.053333 63.293333 63.293333 0 0 0 1.426667-6.193333c0.186667-1.046667 0.353333-2.106667 0.486666-3.173334a65.006667 65.006667 0 0 0 0-16.306666c-0.133333-1.066667-0.3-2.126667-0.486666-3.173334a63.293333 63.293333 0 0 0-1.426667-6.193333 63.96 63.96 0 0 0-3.813333-10.073333l128-128a63.96 63.96 0 0 0 10.073333 3.813333 63.293333 63.293333 0 0 0 6.166667 1.44c1.046667 0.186667 2.106667 0.353333 3.173333 0.486667a65.006667 65.006667 0 0 0 16.306667 0c1.066667-0.133333 2.126667-0.3 3.173333-0.486667a63.293333 63.293333 0 0 0 6.193333-1.426667 63.96 63.96 0 0 0 10.073334-3.813333l64 64a63.96 63.96 0 0 0-3.813334 10.073333 63.293333 63.293333 0 0 0-1.44 6.166667c-0.186667 1.046667-0.353333 2.106667-0.486666 3.173333a65.006667 65.006667 0 0 0 0 16.306667c0.133333 1.066667 0.3 2.126667 0.486666 3.173333a63.293333 63.293333 0 0 0 1.426667 6.193334 64.146667 64.146667 0 0 0 44.053333 44.053333 63.293333 63.293333 0 0 0 6.186667 1.433333c1.046667 0.186667 2.106667 0.353333 3.173333 0.486667a65.006667 65.006667 0 0 0 16.306667 0c1.066667-0.133333 2.126667-0.3 3.173333-0.486667a63.293333 63.293333 0 0 0 6.193334-1.426666 64.146667 64.146667 0 0 0 44.053333-44.053334 63.293333 63.293333 0 0 0 1.433333-6.186666c0.186667-1.046667 0.353333-2.106667 0.486667-3.173334a65.006667 65.006667 0 0 0 0-16.306666c-0.133333-1.066667-0.3-2.126667-0.486667-3.173334a63.4 63.4 0 0 0-7.333333-20.306666l198.28-228.786667a65.006667 65.006667 0 0 0 5.886667 2 63.293333 63.293333 0 0 0 6.193333 1.426667c1.046667 0.186667 2.106667 0.353333 3.173333 0.486666a65.006667 65.006667 0 0 0 16.306667 0c1.066667-0.133333 2.126667-0.3 3.173333-0.486666a63.293333 63.293333 0 0 0 6.193334-1.426667 64.146667 64.146667 0 0 0 44.053333-44.053333 63.293333 63.293333 0 0 0 1.426667-6.193334c0.186667-1.046667 0.353333-2.106667 0.486666-3.173333a65.006667 65.006667 0 0 0 0-16.306667c-0.133333-1.066667-0.3-2.126667-0.486666-3.173333a63.293333 63.293333 0 0 0-1.426667-6.193333 64.146667 64.146667 0 0 0-44.053333-44.053334 63.293333 63.293333 0 0 0-6.193334-1.426666c-1.046667-0.186667-2.106667-0.353333-3.173333-0.486667a65.006667 65.006667 0 0 0-16.306667 0c-1.066667 0.133333-2.126667 0.3-3.173333 0.486667a63.293333 63.293333 0 0 0-6.193333 1.426666 64.146667 64.146667 0 0 0-44.053334 44.053334 63.293333 63.293333 0 0 0-1.426666 6.193333c-0.186667 1.046667-0.353333 2.106667-0.486667 3.173333a65.006667 65.006667 0 0 0 0 16.306667c0.133333 1.066667 0.3 2.126667 0.486667 3.173333a63.4 63.4 0 0 0 7.333333 20.306667L620.74 537.753333a65.006667 65.006667 0 0 0-5.886667-2 63.293333 63.293333 0 0 0-6.186666-1.42c-1.046667-0.186667-2.106667-0.353333-3.173334-0.486666a65.006667 65.006667 0 0 0-16.306666 0c-1.066667 0.133333-2.126667 0.3-3.173334 0.486666a63.293333 63.293333 0 0 0-6.193333 1.426667 63.96 63.96 0 0 0-10.073333 3.813333l-64-64a63.96 63.96 0 0 0 3.813333-10.073333 63.293333 63.293333 0 0 0 1.44-6.166667c0.186667-1.046667 0.353333-2.106667 0.486667-3.173333a65.006667 65.006667 0 0 0 0-16.306667c-0.133333-1.066667-0.3-2.126667-0.486667-3.173333a63.293333 63.293333 0 0 0-1.426667-6.193333 64.146667 64.146667 0 0 0-44.053333-44.053334 63.293333 63.293333 0 0 0-6.186667-1.433333c-1.046667-0.186667-2.106667-0.353333-3.173333-0.486667a65.006667 65.006667 0 0 0-16.306667 0c-1.066667 0.133333-2.126667 0.3-3.173333 0.486667a63.293333 63.293333 0 0 0-6.193333 1.426667 64.146667 64.146667 0 0 0-44.053334 44.053333 63.293333 63.293333 0 0 0-1.433333 6.186667c-0.186667 1.046667-0.353333 2.106667-0.486667 3.173333a65.006667 65.006667 0 0 0 0 16.306667c0.133333 1.066667 0.3 2.126667 0.486667 3.173333a63.293333 63.293333 0 0 0 1.426667 6.193333 63.96 63.96 0 0 0 3.813333 10.073334l-128 128a63.96 63.96 0 0 0-10.073333-3.813334 63.293333 63.293333 0 0 0-6.166667-1.44c-1.046667-0.186667-2.106667-0.353333-3.173333-0.486666a65.006667 65.006667 0 0 0-16.306667 0c-1.066667 0.133333-2.126667 0.3-3.173333 0.486666a63.293333 63.293333 0 0 0-6.193334 1.426667 64.146667 64.146667 0 0 0-44.053333 44.053333 63.293333 63.293333 0 0 0-1.433333 6.186667c-0.186667 1.046667-0.353333 2.106667-0.486667 3.173333a65.006667 65.006667 0 0 0 0 16.306667c0.153333 1.073333 0.3 2.133333 0.486667 3.186667z" p-id="17056"></path></svg>