<svg t="1714980992272" class="icon" viewBox="0 0 1024 1024" version="1.1" xmlns="http://www.w3.org/2000/svg" p-id="11102" width="128" height="128"><path d="M834.048 190.464a67.2768 67.2768 0 0 0-95.3344 0l-64.1024 64.768-50.8928-51.968a42.496 42.496 0 1 0-60.3136 60.1088l26.5216 26.368-322.8672 321.792L256 685.2608l-67.584 65.1776a60.1088 60.1088 0 0 0 27.136 100.864c20.8384 5.5296 43.1104-0.4096 58.368-15.616l65.4848-65.2288 73.5232-13.2096 322.4064-321.7408 26.9824 26.4192a42.8544 42.8544 0 0 0 60.2624 0 42.496 42.496 0 0 0 0-60.0576l-53.4528-52.8896 63.744-63.488a66.816 66.816 0 0 0 1.28-95.0272z m-306.176 388.6592H360.3456l259.9936-259.072 85.504 85.1968-177.8688 173.8752z" fill="#000000" p-id="11103"></path></svg>