<svg t="1726817607339" class="icon" viewBox="0 0 1024 1024" version="1.1" xmlns="http://www.w3.org/2000/svg" p-id="12262" width="200" height="200"><path d="M512 6.993171c275.880585 0 499.512195 223.656585 499.512195 499.512195 0 275.905561-223.63161 499.512195-499.512195 499.512195s-499.512195-223.606634-499.512195-499.512195c0-275.85561 223.63161-499.512195 499.512195-499.512195z m-3.346732 221.983219l1.798244 0.049951c18.157268 0 32.892878-14.910439 32.892878-33.317463a33.092683 33.092683 0 0 0-34.691122-33.217561v-0.074927C327.05561 162.41639 179.82439 309.64761 179.82439 491.270244v8.316878c0 181.622634 147.23122 328.853854 328.828878 328.853854 181.622634 0 328.853854-147.23122 328.853854-328.853854v-4.170927c0-18.382049-14.73561-33.292488-32.892878-33.292488S771.746341 477.034146 771.746341 495.416195v3.346732c0 145.283122-117.784976 263.068098-263.093073 263.068097-145.283122 0-263.068098-117.784976-263.068097-263.068097v-6.668488c0-145.283122 117.784976-263.068098 263.068097-263.068098v-0.049951z m72.778927 275.63083l202.102634-202.12761a24.97561 24.97561 0 0 0 0-35.315512l-42.183805-42.208781a24.97561 24.97561 0 0 0-35.315512 0L503.932878 427.082927l-24.051512 101.550829 101.550829-24.026536z" p-id="12263"></path></svg>