<svg t="1707121642909" class="icon" viewBox="0 0 1024 1024" version="1.1" xmlns="http://www.w3.org/2000/svg" p-id="39493" width="128" height="128"><path d="M512 947.956241c-58.772144 0-115.890104-11.481975-169.602395-34.251315-51.863498-21.990901-98.472532-53.323071-138.464835-93.412679-39.992303-39.992303-71.421777-86.601337-93.412678-138.464835C87.848056 628.115122 76.268776 570.997161 76.268776 512.225018c0-58.772144 11.481975-115.890104 34.251316-169.602395 21.990901-51.863498 53.323071-98.472532 93.412678-138.464835 39.992303-39.992303 86.601337-71.421777 138.464835-93.412679 53.71229-22.672036 110.830251-34.251315 169.602395-34.251315 58.772144 0 115.890104 11.481975 169.602395 34.251315 51.863498 21.990901 98.472532 53.323071 138.464835 93.412679 39.992303 39.992303 71.421777 86.601337 93.412678 138.464835 22.76934 53.71229 34.251315 110.830251 34.251316 169.602395 0 58.772144-11.481975 115.890104-34.251316 169.602394-21.990901 51.863498-53.323071 98.472532-93.412678 138.464835-39.992303 39.992303-86.601337 71.421777-138.464835 93.412679-53.71229 22.672036-110.830251 34.251315-169.602395 34.251315z m0-832.540498C293.161339 115.415743 115.190726 293.386357 115.190726 512.225018c0 218.838661 177.970614 396.809274 396.809274 396.809274 218.838661 0 396.809274-177.970614 396.809274-396.809274 0-218.838661-177.970614-396.809274-396.809274-396.809275z m0 0" p-id="39494"></path><path d="M561.041656 714.984048h-30.638872V366.486643c0.048652-31.320006 25.433061-56.692252 56.753068-56.716578h67.116036c31.040255 0 56.716578 25.66416 56.716578 56.716578v255.76586c0 31.040255-25.676324 56.716578-56.716578 56.716578h-38.727339V648.29372h38.727339c14.388958-0.012163 26.05338-11.664422 26.102033-26.05338V366.486643c-0.024326-14.401121-11.688748-26.077706-26.102033-26.114195h-67.067384c-14.413284 0.024326-26.089869 11.700911-26.114195 26.114195v348.497405h-0.048653z m-68.843198-52.228391v30.651035H369.679459c-31.003765-0.048652-56.680089-25.712813-56.680089-56.753067V375.037309c0-31.052418 25.676324-56.716578 56.716579-56.716578h125.608428v30.651035H369.728112c-14.291653-0.133794-25.980401 11.336018-26.114196 25.627671V482.668662h145.872169v30.651035H343.674732v123.346091c0.012163 14.413284 11.688748 26.077706 26.102032 26.102032H492.247111l-0.048653-0.012163z" p-id="39495"></path></svg>