<svg t="1702634420724" class="icon" viewBox="0 0 1024 1024" version="1.1" xmlns="http://www.w3.org/2000/svg" p-id="2093" width="128" height="128"><path d="M512 512m-512 0a512 512 0 1 0 1024 0 512 512 0 1 0-1024 0Z" fill="#5EAAFF" opacity=".149" p-id="2094"></path><path d="M674.909091 325.818182a23.272727 23.272727 0 0 1 23.272727 23.272727v325.818182a69.818182 69.818182 0 0 1-69.818182 69.818182h-186.181818a69.818182 69.818182 0 0 1-69.818182-69.818182V349.090909a23.272727 23.272727 0 0 1 23.272728-23.272727h279.272727z m-128 209.454545h-116.363636a11.636364 11.636364 0 1 0 0 23.272728h116.363636a11.636364 11.636364 0 1 0 0-23.272728z m93.090909-69.818182h-209.454545a11.636364 11.636364 0 0 0 0 23.272728h209.454545a11.636364 11.636364 0 1 0 0-23.272728z m0-69.818181h-209.454545a11.636364 11.636364 0 0 0 0 23.272727h209.454545a11.636364 11.636364 0 1 0 0-23.272727z" fill="#5EAAFF" p-id="2095"></path><path d="M605.090909 256a23.272727 23.272727 0 0 1 23.272727 23.272727v23.272728H372.363636a23.272727 23.272727 0 0 0-23.109818 20.549818L349.090909 325.818182v345.134545A69.841455 69.841455 0 0 1 302.545455 605.090909V279.272727a23.272727 23.272727 0 0 1 23.272727-23.272727h279.272727z" fill="#5EAAFF" p-id="2096"></path></svg>